<svg width="258" height="124" viewBox="0 0 258 124" fill="none" xmlns="http://www.w3.org/2000/svg">
<g filter="url(#filter0_f_60_1455)">
<circle cx="35" cy="89" r="5" fill="#FF0000"/>
</g>
<g filter="url(#filter1_f_60_1455)">
<circle cx="223" cy="89" r="5" fill="#FF0000"/>
</g>
<path d="M100 78C100.498 79.1827 100.975 80.2963 101.543 81.417C106.293 91.1118 115.384 100.127 129.009 100.262C142.625 100.079 151.661 91.0903 156.446 81.4116C157.018 80.2927 157.498 79.1808 158 78C156.721 78.0976 155.523 78.1654 154.299 78.2765C143.357 79.2538 134.849 80.4119 128.979 80.2617C123.115 80.4305 114.639 79.299 103.699 78.2884C102.477 78.1739 101.279 78.1023 100 78Z" fill="black"/>
<ellipse cx="66.5" cy="26.5" rx="12.5" ry="26.5" fill="black"/>
<ellipse cx="189.5" cy="26.5" rx="12.5" ry="26.5" fill="black"/>
<defs>
<filter id="filter0_f_60_1455" x="0" y="54" width="70" height="70" filterUnits="userSpaceOnUse" color-interpolation-filters="sRGB">
<feFlood flood-opacity="0" result="BackgroundImageFix"/>
<feBlend mode="normal" in="SourceGraphic" in2="BackgroundImageFix" result="shape"/>
<feGaussianBlur stdDeviation="15" result="effect1_foregroundBlur_60_1455"/>
</filter>
<filter id="filter1_f_60_1455" x="188" y="54" width="70" height="70" filterUnits="userSpaceOnUse" color-interpolation-filters="sRGB">
<feFlood flood-opacity="0" result="BackgroundImageFix"/>
<feBlend mode="normal" in="SourceGraphic" in2="BackgroundImageFix" result="shape"/>
<feGaussianBlur stdDeviation="15" result="effect1_foregroundBlur_60_1455"/>
</filter>
</defs>
</svg>
